# xmcd
#
# Track frame offsets:
#	150
#	12941
#	27082
#	42847
#	56030
#	67060
#	78801
#	91116
#	109089
#	123687
#	141102
#	159025
#	171064
#	181331
#	194921
#	209485
#	241657
#
# Disc length: 3398 seconds
#
# Revision: 1
# Processed by: cddbd v1.5.2PL0 Copyright (c) Steve Scherf et al.
# Submitted via: EasyCDDAExtractor 15.2.5.1
#
DISCID=e10d4411
DTITLE=1967Nov-1968Nov - The Great Billboard
DYEAR=1967
DGENRE=Top 40
TTITLE0=Strawberry Alarm Clock/Incence And Peppermints
TTITLE1=The Monkees/Daydream Believer
TTITLE2=The Beatles/Hello Goodbye
TTITLE3=John Fred and His Playboy Band/Judy In Disguise ( With Glasses )
TTITLE4=Lemon Pipers/Green Pipers
TTITLE5=Paul Mauriat/Love Is Blue
TTITLE6=Otis Redding/The Dock Of The Bay
TTITLE7=Bobby Goldsboro/Honey
TTITLE8=Archie Bell and The Drells/Tighten Up
TTITLE9=Simon and Garfunkel/Mrs. Robinson
TTITLE10=Herb Alpert/This Guy's In Love With You
TTITLE11=Hugh Masekela/Graizing In The Glass
TTITLE12=The Doors/Hello, I Love You
TTITLE13=The Rascals/People Got To Be Free
TTITLE14=Jeannie C. Riley/Harper Valley P. T. A.
TTITLE15=The Beatles/Hey Jude
TTITLE16=The Supremes/Love Child
EXTD=
EXTT0=
EXTT1=
EXTT2=
EXTT3=
EXTT4=
EXTT5=
EXTT6=
EXTT7=
EXTT8=
EXTT9=
EXTT10=
EXTT11=
EXTT12=
EXTT13=
EXTT14=
EXTT15=
EXTT16=
PLAYORDER=
